<svg xmlns="http://www.w3.org/2000/svg" height="6rem" width="6rem" viewBox="0 0 886.8 783"><defs><style>.cls-1,.cls-3{fill:none;}.cls-2{fill:#fff;}.cls-3{stroke:#fff;stroke-miterlimit:10;stroke-width:13px;}</style></defs><title>Asset 1</title><g id="Layer_2" data-name="Layer 2"><g id="Layer_1-2" data-name="Layer 1"><path class="cls-1" d="M187.85,270.32l117.2-85.44V105.5L221.49,60.41a285.22,285.22,0,0,0-117.61,86.17L123.78,239Z"/><path class="cls-1" d="M539.62,278l-62.44,30.59-47.9,134.14,19.93,23.59A200.08,200.08,0,0,1,607.29,359c.25-2.1.5-4.19.7-6.3Z"/><path class="cls-1" d="M526.66,239.08l19.91-91.9A285.71,285.71,0,0,0,429.2,60.65l-83.56,44.93v79.3l117.28,85.44Z"/><path class="cls-1" d="M253.3,467.19l-40.75,48.95,25.55,79.54a279,279,0,0,0,159.33,4l31.2-67.31a199.52,199.52,0,0,1,4.23-22.56l-36-42.61Z"/><path class="cls-1" d="M173.55,308.59l-62.72-30.67L42.05,352.63a282.52,282.52,0,0,0,48.54,133l90.27,5,39.94-47.86Z"/><path class="cls-1" d="M637.83,358.29h-.17c-1.57-.08-3.15-.14-4.74-.19l-.61,0c-1.76-.05-3.53-.07-5.31-.07s-3.35,0-5,.06c-1.46,0-2.91.1-4.37.17l-.55,0q-4.9.24-9.77.72A200.05,200.05,0,0,0,449.21,466.33q-2.62,5.07-4.95,10.3c-.06.12-.1.23-.15.35-.71,1.58-1.39,3.18-2.06,4.79-.08.22-.17.43-.26.65q-1,2.37-1.88,4.77c-.05.15-.11.3-.17.45a199.6,199.6,0,0,0-11.11,44.72q-.37,2.94-.66,5.91c-.05.49-.09,1-.13,1.48-.14,1.46-.25,2.93-.35,4.4-.05.63-.09,1.27-.12,1.9-.09,1.41-.15,2.82-.21,4.24,0,.59-.05,1.18-.07,1.77,0,2-.09,4-.09,5.94q0,2.47.06,4.92l.06,1.73c0,1.05.07,2.11.12,3.15l.12,2.12c.06.9.11,1.81.18,2.71s.12,1.56.18,2.33.14,1.63.22,2.45.17,1.66.26,2.49.16,1.47.25,2.21.22,1.78.34,2.66l.27,2c.14,1,.28,1.92.43,2.87l.27,1.6c.17,1.06.35,2.11.55,3.16.06.35.13.69.19,1A199.76,199.76,0,0,0,440,629h0A200.07,200.07,0,0,0,627,758c110.46,0,200-89.54,200-200,0-103.29-78.3-188.29-178.79-198.88h0Q643.06,358.58,637.83,358.29Z"/><path class="cls-1" d="M592.41,335.65,539.62,278l-62.44,30.59-47.9,134.14,2.63,3.11A225.15,225.15,0,0,1,592.41,335.65Z"/><path class="cls-1" d="M526.66,239.08l19.91-91.9A285.71,285.71,0,0,0,429.2,60.65l-83.56,44.93v79.3l117.28,85.44Z"/><path class="cls-1" d="M413.49,486.86l-16.62-19.67H253.3l-40.75,48.95,25.55,79.54a279,279,0,0,0,159.33,4l6.31-13.61A227.92,227.92,0,0,1,402,558,224.67,224.67,0,0,1,413.49,486.86Z"/><path class="cls-1" d="M173.55,308.59l-62.72-30.67L42.05,352.63a282.52,282.52,0,0,0,48.54,133l90.27,5,39.94-47.86Z"/><path class="cls-1" d="M187.85,270.32l117.2-85.44V105.5L221.49,60.41a285.22,285.22,0,0,0-117.61,86.17L123.78,239Z"/><path d="M617.06,358.25l.55,0Z"/><path d="M441.79,482.42c.09-.22.18-.43.26-.65C442,482,441.88,482.2,441.79,482.42Z"/><path d="M444.11,477c.05-.12.09-.23.15-.35C444.2,476.75,444.16,476.86,444.11,477Z"/><path d="M439.74,487.64c.06-.15.12-.3.17-.45C439.86,487.34,439.8,487.49,439.74,487.64Z"/><path class="cls-2" d="M607.29,359h0c.25-2.1.5-4.19.7-6.3l-15.58-17a225.15,225.15,0,0,0-160.5,110.19l17.3,20.48h0A200.05,200.05,0,0,1,607.29,359Z"/><path class="cls-2" d="M649.87,334.15q-.36,12.62-1.66,25C748.7,369.71,827,454.71,827,558c0,110.46-89.54,200-200,200A200.07,200.07,0,0,1,440,629q-11.66,4.42-23.73,7.95C448.21,722.25,530.51,783,627,783c124.26,0,225-100.74,225-225C852,441.46,763.39,345.61,649.87,334.15Z"/><path d="M427.84,539.75c0-.49.08-1,.13-1.48C427.92,538.76,427.88,539.26,427.84,539.75Z"/><path d="M632.31,358.07l.61,0Z"/><path d="M622,358.06c1.67,0,3.34-.06,5-.06C625.32,358,623.65,358,622,358.06Z"/><path d="M637.66,358.28h0Z"/><path class="cls-2" d="M432.86,509.8l-19.37-22.94A224.67,224.67,0,0,0,402,558a227.92,227.92,0,0,0,1.74,28.06l24.89-53.7h0a199.52,199.52,0,0,1,4.23-22.56Z"/><path d="M427.37,546.05c0-.63.07-1.27.12-1.9C427.44,544.78,427.4,545.42,427.37,546.05Z"/><path d="M427.54,572.63c-.07-.9-.12-1.81-.18-2.71C427.42,570.82,427.47,571.73,427.54,572.63Z"/><path d="M427.94,577.41c-.08-.82-.15-1.63-.22-2.45C427.79,575.78,427.86,576.59,427.94,577.41Z"/><path d="M429.76,591.19l-.27-1.6Z"/><path d="M429.06,586.72l-.27-2Z"/><path d="M428.45,582.11c-.09-.74-.17-1.47-.25-2.21C428.28,580.64,428.36,581.37,428.45,582.11Z"/><path d="M430.5,595.38c-.06-.34-.13-.68-.19-1C430.37,594.7,430.44,595,430.5,595.38Z"/><path d="M427.09,552.06c0-.59.05-1.18.07-1.77C427.14,550.88,427.11,551.47,427.09,552.06Z"/><path d="M427.24,567.8c-.05-1-.08-2.1-.12-3.15C427.16,565.7,427.19,566.76,427.24,567.8Z"/><path d="M427.06,562.92Q427,560.47,427,558,427,560.47,427.06,562.92Z"/><path class="cls-2" d="M440,629a199.76,199.76,0,0,1-9.47-33.59c-.06-.34-.13-.68-.19-1-.2-1.05-.38-2.1-.55-3.16l-.27-1.6c-.15-1-.29-1.91-.43-2.87l-.27-2c-.12-.88-.23-1.77-.34-2.66s-.17-1.47-.25-2.21-.18-1.66-.26-2.49-.15-1.63-.22-2.45-.13-1.55-.18-2.33-.12-1.81-.18-2.71l-.12-2.12c-.05-1-.08-2.1-.12-3.15l-.06-1.73Q427,560.47,427,558c0-2,0-4,.09-5.94,0-.59.05-1.18.07-1.77.06-1.42.12-2.83.21-4.24,0-.63.07-1.27.12-1.9.1-1.47.21-2.94.35-4.4,0-.49.08-1,.13-1.48q.28-3,.66-5.91h0l-24.89,53.7-6.31,13.61a279,279,0,0,1-159.33-4l-25.55-79.54,40.75-48.95H396.87l16.62,19.67,19.37,22.94h0a199,199,0,0,1,6.88-22.16c.06-.15.12-.3.17-.45q.91-2.4,1.88-4.77c.09-.22.18-.43.26-.65.67-1.61,1.35-3.21,2.06-4.79.05-.12.09-.23.15-.35q2.33-5.24,4.95-10.3h0l-17.3-20.48-2.63-3.11,47.9-134.14L539.62,278l52.79,57.65,15.58,17c-.2,2.11-.45,4.2-.7,6.3h0q4.86-.48,9.77-.72l.55,0c1.46-.07,2.91-.13,4.37-.17,1.67,0,3.34-.06,5-.06s3.55,0,5.31.07l.61,0c1.59.05,3.17.11,4.74.19h.17q5.24.29,10.38.83h0q1.29-12.36,1.66-25c.08-3,.13-6.09.13-9.15C650,145.8,504.2,0,325,0S0,145.8,0,325,145.8,650,325,650a323.83,323.83,0,0,0,91.24-13.08Q428.3,633.38,440,629ZM345.64,105.58,429.2,60.65a285.71,285.71,0,0,1,117.37,86.53l-19.91,91.9-63.74,31.24L345.64,184.88ZM221.49,60.41l83.56,45.09v79.38l-117.2,85.44L123.78,239l-19.9-92.46A285.22,285.22,0,0,1,221.49,60.41ZM90.59,485.63a282.52,282.52,0,0,1-48.54-133l68.78-74.71,62.72,30.67L220.8,442.77l-39.94,47.86Z"/><rect class="cls-2" x="775.53" y="381.89" width="64" height="19" transform="translate(-50.85 653.07) rotate(-42.81)"/><rect class="cls-2" x="824.27" y="332.29" width="20" height="70" rx="4.48" ry="4.48" transform="translate(-27.35 664.83) rotate(-42.81)"/><rect class="cls-3" x="785" y="343" width="98" height="49" rx="12" ry="12" transform="translate(536.8 -494.06) rotate(47.19)"/><path class="cls-2" d="M628.5,407.5a150,150,0,1,0,150,150A150,150,0,0,0,628.5,407.5ZM700,558.82H631a7,7,0,0,1-4,1.25,7.05,7.05,0,0,1-7-6.32,6.69,6.69,0,0,1-.29-2,6.85,6.85,0,0,1,.25-1.83V438.54a7,7,0,1,1,14.07,0V544.75h66a7,7,0,1,1,0,14.07Z"/></g></g></svg>