<svg xmlns="http://www.w3.org/2000/svg" height="6rem" width="6rem" viewBox="0 0 852 853.56"><defs><style>.cls-1{fill:#fff;}.cls-2{fill:none;stroke:#fff;stroke-miterlimit:10;stroke-width:40px;}</style></defs><title>Asset 1</title><g id="Layer_2" data-name="Layer 2"><g id="Layer_1-2" data-name="Layer 1"><rect class="cls-1" x="310" y="444.57" width="230" height="229.93" rx="12" ry="12"/><rect class="cls-2" x="20" y="20" width="812" height="812" rx="12" ry="12"/><rect class="cls-2" x="152" y="20" width="547" height="812" rx="12" ry="12"/><path class="cls-2" d="M247.09,436.74,244,369c0-16.8,6.68-112.55,11.16-140.69a94.36,94.36,0,0,1,2.35-10.64L306,47c0-6.6,10.4-27,17-27H550c6.6,0-11,10.4-11,17l53.11,259.59a724.57,724.57,0,0,1,14.4,124l.47,16.11"/><path class="cls-2" d="M610.66,561.74l1.75,59.54a554.84,554.84,0,0,1-17.79,156.58L581,830c0,6.6-24.4,2-31,2H286c-6.6,0-12-5.4-28.93-13.87L258,676l-5.21-114.26"/><path class="cls-1" d="M292.17,525.87l-10.86-64.08A12,12,0,0,0,267.47,452l-22.68,3.84-.87-5.17a4.76,4.76,0,0,0-5.48-3.89l-36,6.09a4.78,4.78,0,0,0-3.89,5.48l1.4,8.23A12,12,0,0,0,197.5,476l10.86,64.08a12,12,0,0,0,13.84,9.83l60.14-10.19A12,12,0,0,0,292.17,525.87Z"/><path class="cls-1" d="M557.73,528.28l9-64.38a12,12,0,0,1,13.54-10.23L603,456.84l.72-5.2a4.78,4.78,0,0,1,5.36-4.05l36.16,5a4.77,4.77,0,0,1,4,5.36l-1.16,8.26a12,12,0,0,1,2.74,9.38l-9,64.37a12,12,0,0,1-13.54,10.23L568,541.82A12,12,0,0,1,557.73,528.28Z"/><rect class="cls-1" x="335.5" y="665.5" width="175" height="152"/><path class="cls-1" d="M498.05,290.12H352a12,12,0,0,0-12,12V421.21a12,12,0,0,0,12,12h146.1a12,12,0,0,0,12-12V302.12A12,12,0,0,0,498.05,290.12ZM360.24,341a15.5,15.5,0,0,1,15.51-15.51c13.52,0,15.51,6.94,15.51,15.51a15.51,15.51,0,0,1-31,0Zm41.23,72.78H390.42a12,12,0,0,1-12-12v-6.6a12,12,0,0,1,12-12h11.05ZM446,414H406V383h40Zm22.57-12.23a12,12,0,0,1-12,12h-7v-30.6h7a12,12,0,0,1,12,12Zm3.4-45.28A15.51,15.51,0,1,1,487.48,341,15.51,15.51,0,0,1,472,356.49Z"/></g></g></svg>