<svg xmlns="http://www.w3.org/2000/svg" height="6rem" width="6rem" viewBox="0 0 863.5 598.89"><defs><style>.cls-1{fill:#fff;}.cls-1,.cls-4{stroke:#fff;}.cls-1,.cls-2,.cls-3,.cls-4{stroke-miterlimit:10;}.cls-1,.cls-2{stroke-width:5px;}.cls-2,.cls-3{stroke:#000;}.cls-3,.cls-4{fill:none;}.cls-3{stroke-width:38px;}.cls-4{stroke-width:7px;}</style></defs><title>Asset 1</title><g id="Layer_2" data-name="Layer 2"><g id="Layer_1-2" data-name="Layer 1"><ellipse class="cls-1" cx="409.43" cy="539.88" rx="17.76" ry="17.53"/><ellipse class="cls-1" cx="736.22" cy="541.05" rx="17.76" ry="17.53"/><path class="cls-2" d="M605.8,249H382.38c-9.22,0-16.76,4.46-16.76,9.91v74.8a7,7,0,0,0,7,7H615.55a7,7,0,0,0,7-7v-74.8C622.55,253.42,615,249,605.8,249Z"/><path class="cls-2" d="M501.89,224.28,408.33,64.37a15.8,15.8,0,0,1,5.9-21.73l4.33-2.47a16.24,16.24,0,0,1,22,5.83l93.56,159.91a15.78,15.78,0,0,1-5.9,21.72l-4.33,2.47A16.24,16.24,0,0,1,501.89,224.28Z"/><path class="cls-2" d="M371.91,54.55l-137.26,78.2a19.09,19.09,0,0,1-25.88-6.84h0a18.56,18.56,0,0,1,6.93-25.54L353,22.17A19.08,19.08,0,0,1,378.85,29h0A18.57,18.57,0,0,1,371.91,54.55Z"/><path class="cls-3" d="M164.15,241.21a55.21,55.21,0,0,0,29.11-71.48c-11.67-28.4-44.47-42.09-73.25-30.57A55.67,55.67,0,0,0,87.5,173.91"/><path d="M410,482.05c-32.69,0-59.2,26.15-59.2,58.42s26.51,58.42,59.2,58.42,59.2-26.16,59.2-58.42S442.72,482.05,410,482.05Zm-1.18,74.77A17.53,17.53,0,1,1,426.6,539.3,17.64,17.64,0,0,1,408.84,556.82Z"/><path d="M736.81,482.05c-32.69,0-59.2,26.15-59.2,58.42s26.51,58.42,59.2,58.42S796,572.73,796,540.47,769.51,482.05,736.81,482.05Zm0,77.11a17.53,17.53,0,1,1,17.76-17.52A17.64,17.64,0,0,1,736.81,559.16Z"/><path d="M838,351.19H297a25.37,25.37,0,0,0-25.46,25.12V422a6.22,6.22,0,0,1,6.28-6.17l579.49,1.61a6.21,6.21,0,0,1,6.24,6.17V376.31A25.37,25.37,0,0,0,838,351.19Z"/><path d="M857.26,417.46l-579.49-1.61a6.22,6.22,0,0,0-6.28,6.17V534.3a6.22,6.22,0,0,0,6.26,6.17h58.88c0-.2,0-.39,0-.59,0-40.33,33.14-73,74-73s74,32.69,74,73c0,.2,0,.39,0,.59H662.23c0-.2,0-.39,0-.59,0-40.33,33.13-73,74-73s74,32.69,74,73c0,.2,0,.39,0,.59h47a6.22,6.22,0,0,0,6.25-6.17V423.63A6.21,6.21,0,0,0,857.26,417.46Z"/><path class="cls-2" d="M811.45,249H709.53c-4.21,0-7.65,4.46-7.65,9.91v76.86a5,5,0,0,0,5,4.94H814.16a4.94,4.94,0,0,0,4.94-4.94V258.87C819.1,253.42,815.66,249,811.45,249Z"/><rect class="cls-2" x="695.29" y="157.97" width="130.4" height="30.78" rx="9.5" ry="9.5" transform="translate(933.86 -587.12) rotate(90)"/><path class="cls-2" d="M753.22,88.5c35.46-19.73,51.57-57.84,36-85.11L660.8,74.83C676.39,102.11,717.76,108.23,753.22,88.5Z"/><line class="cls-4" x1="227.09" y1="415.45" x2="862.91" y2="415.45"/><rect class="cls-2" x="2.5" y="398.88" width="196.71" height="185.06"/></g></g></svg>