<svg xmlns="http://www.w3.org/2000/svg" height="6rem" width="6rem" viewBox="0 0 879.8 659.38"><defs><style>.cls-1{fill:#fff;}.cls-2,.cls-3{fill:none;stroke:#fff;stroke-miterlimit:10;}.cls-2{stroke-width:16px;}.cls-3{stroke-width:19px;}</style></defs><title>Asset 2</title><g id="Layer_2" data-name="Layer 2"><g id="Layer_1-2" data-name="Layer 1"><rect class="cls-1" x="702.8" y="131.21" width="101.87" height="30.24" transform="translate(127.9 591.15) rotate(-46.39)"/><rect class="cls-1" x="777.91" y="49.68" width="31.83" height="111.42" rx="6.87" ry="6.87" transform="translate(169.99 607.48) rotate(-46.39)"/><rect class="cls-2" x="715.42" y="66.76" width="155.99" height="77.99" rx="12" ry="12" transform="translate(291.88 -518.07) rotate(43.61)"/><path class="cls-1" d="M541,59.38c-165.69,0-300,134.31-300,300s134.31,300,300,300,300-134.32,300-300S706.69,59.38,541,59.38Zm-1.68,485.09c-103.55,0-187.5-84-187.5-187.5s83.95-187.5,187.5-187.5,187.5,83.95,187.5,187.5S642.88,544.47,539.32,544.47Z"/><path class="cls-3" d="M646.11,360.18H530.75a1.07,1.07,0,0,0,1.07-1.07V200.54a1.07,1.07,0,0,0-1.07-1.07h-1.07a1.07,1.07,0,0,0-1.07,1.07V359.11a1.07,1.07,0,0,0,1.07,1.07H530a1.44,1.44,0,0,0-1.43,1.43V363a1.43,1.43,0,0,0,1.43,1.43H646.11a1.43,1.43,0,0,0,1.43-1.43v-1.43A1.44,1.44,0,0,0,646.11,360.18Z"/><rect class="cls-1" x="579.54" y="53.99" width="47.85" height="39.05" transform="translate(389.96 642.72) rotate(-76.38)"/><rect class="cls-1" x="592.19" y="-18.69" width="46.69" height="101.79" rx="11.89" ry="11.89" transform="translate(439.33 622.86) rotate(-76.38)"/><path class="cls-1" d="M285.84,120.88H0v40H253.7A350.81,350.81,0,0,1,285.84,120.88Z"/><path class="cls-1" d="M230.48,220.88H0v40H216.06A345.86,345.86,0,0,1,230.48,220.88Z"/><path class="cls-1" d="M194.56,316.88H0v40H192A351.88,351.88,0,0,1,194.56,316.88Z"/><path class="cls-1" d="M212.51,516.88H0v40H234.41A349.31,349.31,0,0,1,212.51,516.88Z"/><path class="cls-1" d="M197,416.88H0v40H206.35A349.58,349.58,0,0,1,197,416.88Z"/></g></g></svg>