<svg xmlns="http://www.w3.org/2000/svg" height="6rem" width="6rem" viewBox="0 0 942.82 655.36"><defs><style>.cls-1{fill:#fff;}</style></defs><title>Asset 1</title><g id="Layer_2" data-name="Layer 2"><g id="Layer_1-2" data-name="Layer 1"><path class="cls-1" d="M472.71,12.55a10,10,0,0,0-9.47-3L301.77,45.24h0L229.28,0h0L30.72,100.27a10,10,0,0,0-5.31,10.8l12.7,66.05a10,10,0,0,1-1.19,6.94L1.38,244.6a10,10,0,0,0-.29,9.6l38.18,75a10,10,0,0,0,13.44,4.37l32.93-16.77a10,10,0,0,0,5-6.08,107,107,0,0,1,138.48-70.51,10,10,0,0,0,7.88-.5l108.64-55.32a10,10,0,0,0,5-6.08,107,107,0,0,1,138.52-70.51,10,10,0,0,0,7.83-.47l31.75-16h0a10,10,0,0,0,2.63-15.62ZM120.2,85.1,138,120a10,10,0,0,1-4.37,13.44L67,167.36a10,10,0,0,1-14.35-7l-7.66-40a10,10,0,0,1,5.28-10.78l56.52-28.78A10,10,0,0,1,120.2,85.1ZM264,67l-90.42,46a10,10,0,0,1-13.44-4.37L142.39,73.8a10,10,0,0,1,4.37-13.44l71.13-36.22a10,10,0,0,1,10.14.63l37,25.07A10,10,0,0,1,264,67Z"/><path class="cls-1" d="M148.64,254.14a97.27,97.27,0,1,0,130.82,42.54A97.27,97.27,0,0,0,148.64,254.14Zm61.79,121.35a38.91,38.91,0,1,1,17-52.33A38.91,38.91,0,0,1,210.43,375.49Z"/><path class="cls-1" d="M410.07,121a97.27,97.27,0,1,0,130.81,42.54A97.28,97.28,0,0,0,410.07,121Zm61.79,121.35a38.91,38.91,0,1,1,17-52.32A38.92,38.92,0,0,1,471.86,242.37Z"/><polygon class="cls-1" points="11.82 655.36 367.82 376.36 591.82 420.36 628.82 190.36 886.82 119.36 942.82 50.36 942.82 655.36 11.82 655.36"/></g></g></svg>