<svg xmlns="http://www.w3.org/2000/svg" viewBox="0 0 872.63 772.34"><defs><style>.cls-1,.cls-3,.cls-4,.cls-5{fill:none;}.cls-1,.cls-2,.cls-3,.cls-4,.cls-5,.cls-6,.cls-7{stroke:#fff;stroke-miterlimit:10;}.cls-1,.cls-2{stroke-width:10px;}.cls-2,.cls-7{fill:#fff;}.cls-3{stroke-width:30px;}.cls-4{stroke-width:16px;}.cls-5,.cls-6,.cls-7{stroke-width:8px;}</style></defs><title>Asset 2</title><g id="Layer_2" data-name="Layer 2"><g id="Layer_1-2" data-name="Layer 1"><path class="cls-1" d="M122.91,23.52l25.32,7.07c48.38,13.51,94.08,40.6,131.32,77.83L766.71,595.59"/><path class="cls-2" d="M730.92,631.65,695,667.33,207.81,180.16C170.58,142.92,143.49,97.22,130,48.84l-7.07-25.32"/><line class="cls-3" x1="644.77" y1="719.33" x2="819.62" y2="544.48"/><rect class="cls-4" x="762.42" y="608.88" width="50.72" height="157.24" transform="translate(-255.4 758.41) rotate(-45)"/><path class="cls-5" d="M730.92,631.65l-610-610Z"/><line class="cls-4" x1="752.37" y1="687.05" x2="788.24" y2="651.19"/><line class="cls-4" x1="787.34" y1="723.82" x2="823.21" y2="687.95"/><line class="cls-3" x1="227.86" y1="701.58" x2="53.01" y2="526.73"/><rect class="cls-4" x="59.48" y="591.13" width="50.72" height="157.24" transform="translate(-328.75 1203.32) rotate(-135)"/><line class="cls-6" x1="105.91" y1="577.84" x2="355.7" y2="328.05"/><polyline class="cls-7" points="141.78 613.71 391.67 364.41 427.44 399.78 177.65 649.57 105.91 577.84"/><line class="cls-4" x1="120.26" y1="669.3" x2="84.39" y2="633.43"/><line class="cls-4" x1="85.29" y1="706.06" x2="49.42" y2="670.2"/><path class="cls-7" d="M724.4,12.83l25.32-7.07-7.07,25.32c-13.51,48.39-40.6,94.09-77.83,131.32L499.17,328.05l-.25-.4-71-71,38,39,284-290"/><path class="cls-5" d="M593.08,90.67C630.32,53.44,676,26.35,724.4,12.83"/><path class="cls-6" d="M427.44,256.31,593.08,90.67"/></g></g></svg>