<svg xmlns="http://www.w3.org/2000/svg" viewBox="0 0 1000 931.13"><defs><style>.cls-1{fill:#029765;}.cls-2{fill:#039765;}.cls-3{fill:#fdce6d;}.cls-4{fill:#019765;}.cls-5{fill:#fbce6f;}.cls-6{fill:#af9b71;}.cls-7{fill:#af996f;}.cls-8{fill:#b39f77;}.cls-9{fill:#b49e71;}.cls-10{fill:#b69961;}.cls-11{fill:#b29d73;}.cls-12{fill:#ac976e;}.cls-13{fill:#b8a171;}.cls-14{fill:#b7a178;}.cls-15{fill:#b1996e;}.cls-16{fill:#c6b087;}.cls-17{fill:#ab915d;}.cls-18{fill:#b9a57d;}.cls-19{fill:#b59965;}.cls-20{fill:#9d8668;}.cls-21{fill:#a18248;}.cls-22{fill:#ae9972;}.cls-23{fill:#baa577;}.cls-24{fill:#d7bd8c;}.cls-25{fill:#ee6627;}</style></defs><title>Asset 1</title><g id="Layer_2" data-name="Layer 2"><g id="Layer_1-2" data-name="Layer 1"><path class="cls-1" d="M1000.81,390.49q-1.18,7.25-2.38,14.51a127.22,127.22,0,0,1-21.51,52.34,129.22,129.22,0,0,1-61.52,48.1c-17.79,6.77-36.47,9.57-55.48,10-2.25,0-4.53-1-6.8-1.55-10.87-2.65-22.29-4-32.49-8.22C798.43,496.43,786.25,474,788.8,450s19.14-42.43,42.52-47.62c11.55-2.56,22.47-1.23,33.52,2.67,3.06,1.08,7.54.1,10.7-1.36,21.71-10.07,25.21-36.09,11.63-51.59a9.25,9.25,0,0,0-5.22-2.87c-45.41-6-82.71,9.26-112,44.05a108.11,108.11,0,0,0-24.44,54.77c-1.64,11.46-.8,23.27-1,34.93a33.73,33.73,0,0,0,.35,3.44c-26.43-8.76-53.27-8.23-80.08-7.06a289.79,289.79,0,0,0-88.23,17.91c-18.39,6.79-35.58,15.92-52.83,25.1-16,8.53-32.8,15.64-49.06,23.74q-21,10.44-41.51,21.76c-10.77,5.92-21.23,12.4-31.82,18.64-7.11,4.2-13.92,9-21.37,12.49-10.4,4.83-21.19,8.88-32,12.8-11.92,4.34-23.88,8.65-36.09,12-8.74,2.4-17.9,3.3-26.9,4.66a93.21,93.21,0,0,1-17.29,1.1c4.32-2.93,8.75-5.72,13-8.81,27.39-20.14,43.25-47.24,48.41-80.71a7.15,7.15,0,0,0-1-4.52c-9.32-14.54-2-32.42,11.14-39.55,10.95-5.93,21.4-6.81,32.59-1.93,11.87,5.18,23.58,10.76,35.64,15.45a98.83,98.83,0,0,0,40.52,6.89c12.72-.59,25.47-1.15,38.11-2.54,7.95-.88,15.77-3.09,23.57-5,9.47-2.36,19-4.76,28.24-7.71,23.16-7.36,44.13-18.92,63.3-33.83a208.66,208.66,0,0,0,76.11-124.84A210.72,210.72,0,0,0,681,299.55q-1.1-65.9-39.32-119.65c-2.48-3.49-5.14-6.84-8-10.57,38.7-38.7,49.19-84.62,32.62-138,13.49,4.17,25.75,7.1,37.33,11.73C720,49.6,736.12,56.91,751.9,64.79c17.7,8.83,34.08,19.88,49.89,31.84,15.27,11.57,29.76,24,42.76,38a162.71,162.71,0,0,1,16.2,21.24c2.15,3.27,3,7.68,3.52,11.69.57,4.77.21,9.67,0,14.51-.3,8.47-3.68,15.8-8.86,22.37-7,8.86-14.49,17.18-24.57,22.63-14.32,7.73-29.43,12.79-45.94,12.24-15.35-.52-30.08-3.44-42.57-13.16-11.17-8.7-17.79-19.92-17.7-34.43a26.34,26.34,0,0,1,6.72-17.55c1.73-2,4.71-2.87,7.15-4.18,9.77-5.27,14-14.89,11.24-25.77-2.31-9.25-12-16.13-22.12-16-4.82.06-8.59,2.36-11.57,5.59-8.36,9-17,17.93-21.84,29.59-12.3,29.85-8.81,57.58,12,82.46,11.18,13.35,25.1,23.28,41.85,28.64,13.26,4.24,26.87,5.77,40.85,5.62,26.6-.28,50.1-8.79,71-24.89,23.45-18.07,37.87-41.87,44.33-70.62.76-3.38,1.22-6.82,2-11.29,2.29,2.6,4,4.61,5.81,6.61a371.12,371.12,0,0,1,59.48,91.67,381.31,381.31,0,0,1,24.79,73.68c1.8,7.81,2.4,15.9,3.6,23.85a8.12,8.12,0,0,0,.83,2Z" transform="translate(-0.81 -1.52)"/><path class="cls-2" d="M.81,365.46a100.83,100.83,0,0,0,1.59-10c1.05-17.92,5.08-35.24,10.28-52.33a26.39,26.39,0,0,1,1.21-2.93c6,8.48,11.55,17.48,18.24,25.53,12.61,15.18,28.94,25.18,47.47,31.72,19.58,6.92,39.69,10.24,60.44,8.79a356.87,356.87,0,0,0,52.84-7.79c23-5.1,41.9-17.4,60.32-31a18.73,18.73,0,0,1,2.74-1.38c1.28,7.29,2.31,14.38,3.79,21.37A203.6,203.6,0,0,0,290,419.24c1.32,2,2.05,3.54-.15,5.54-2,1.85-3.5,2.05-5.79.29a118,118,0,0,0-47.19-22c-18.22-4-36.38-3.55-54.65.31C135.81,413.18,93.38,460.67,83.3,504a141.31,141.31,0,0,0-2.1,54c.35,2.32,0,4.75,0,8.31-6-6.35-11.57-11.78-16.54-17.74a288.27,288.27,0,0,1-38.53-59,235.66,235.66,0,0,1-18.54-53c-2.93-13.55-4-27.51-5.9-41.28a11.15,11.15,0,0,0-.93-2.39Z" transform="translate(-0.81 -1.52)"/><path class="cls-3" d="M641.34,268.72l9.3,1.62c3.91,1,5.91,3.17,5.9,7.49,0,3.67.84,7.33,1.31,11l-.05,23.42c.13,3.34-.59,6.07-4.62,6.44-7.09,1-14.2,2-21.26,3.22a3.49,3.49,0,0,0-2.2,2.3c-.55,3-.7,6-1,9-1.12,4.63-2,9.35-3.43,13.86-1,3-.32,4.74,2.11,6.46,5.1,3.6,10,7.42,15.09,11.08,2.11,1.53,3.25,3.17,1.52,5.66l-.72,2.5,0,0-.83,1.65,0,0c-.81,1.89-1.63,3.79-2.45,5.68l0,0-2.44,4.88,0,0c-.28.55-.55,1.1-.83,1.64l0,0c-.55.82-1.1,1.64-1.64,2.46l0-.06-.84,2.06-9.28,14.9c-3.06,2.06-6,1.79-9.34.31-2.48-1.1-5.36-1.31-8.06-1.91l0,0-1.72-.79a3,3,0,0,1-.79-.12c-8.68-3.75-9.34-3.42-15.1,4.51-2.07,2.86-4.94,5.14-7.45,7.68-1.8,1.85-5.22,3.86-5.06,5.53.28,2.92,2.75,5.63,4.31,8.43v.15l.84,1.57,0,0,1.52,3.81.87,2.31.62.66c.53,1.22,1.09,2.42,1.57,3.66,1.12,2.82.64,4.61-2.36,6.41-6.43,3.85-12.47,8.38-18.67,12.63l-11.8,6.5,0,0-3.26,1.65,0,0-5.55-.08-1-.8a2.27,2.27,0,0,1-.26-.49l-11-12.86-1.64-1.92,0,0a13.84,13.84,0,0,0-2.32-3.07c-.27-.22-1.63.93-2.49,1.46l0,0-9.83,3.17c-3.8,1.11-7.57,2.27-11.39,3.29-2.06.55-3.13,1.51-3.16,3.86-.05,3-.57,6.08-.89,9.12-.45.55-1.18,1.06-1.28,1.67-.41,2.47-.65,5-.91,7.47-.34,3.36-1.82,5.39-5.54,5.36a31.69,31.69,0,0,0-5,.74l-18.54.12-19.4-.94,0,.05c-.47-1.85-.93-3.71-1.39-5.56q-1.37-9.21-2.72-18.43l-.79-1,0,0-16.43-3.24c-3.06-1-6.08-2.27-9.21-3a3.93,3.93,0,0,0-3.25,1.33c-4.13,5.42-7.89,11.14-12.18,16.43-1.2,1.47-3.78,1.82-5.72,2.68L386.2,468l-3.72-1.72q-4.82-2.79-9.64-5.57l0,0-2.45-1.63,0,0L368,457.49l0,0-1.07-.83-.65-1.09-2.36-1.3h0c-1.62-1.89-1.8-3.76-.74-6.16.95-2.13,1.07-4.62,1.56-7,1.66-4.05,3.41-8.07,4.88-12.2a3.47,3.47,0,0,0-1-2.84c-2-1.91-4.17-3.58-6.27-5.35l-3.26-2.84,0,0-1.63-1.64,0,0-1.63-1.65,0,0-4.08-4.05,0,0-1.63-1.65,0,0-.83-.85,0,0c-1.36-2.54-3.11-2.28-5.65.84l0-.05-.73.46c-5.27,2.2-10.58,4.3-15.8,6.62-3,1.32-4.63.89-6.38-2.18-2.6-4.54-6.21-8.49-8.95-13C308.75,395.66,306,390,303,384.54a2,2,0,0,1-.16-.37c-.83-2.23-2.64-4.69-2.19-6.61s3.13-3.42,4.93-5c3.81-3.31,7.67-6.56,11.54-9.8,2.12-1.76,2.91-3.43,1.52-6.35-1.74-3.63-2.61-7.67-3.85-11.53-.2-1.44-.32-2.9-.62-4.33-1.78-8.65-1.75-8.87-10.19-10.16-4.39-.67-8.92-.38-13.39-.53-6.43-.88-6.47-.88-7.17-7.93-.17-1.73,0-3.49,0-5.23,0-4-.23-7.91,0-11.85.41-7.8,1-15.58,1.58-23.37l0,0,5.83-1.63h3.39c4.58-.66,9.2-1.14,13.74-2.07A4.84,4.84,0,0,0,311,275c1-4,1.48-8.1,2.15-12.16,1-3.78,2.16-7.52,2.84-11.35a5,5,0,0,0-1.57-3.87,158.26,158.26,0,0,0-14.49-11.09c-3.91-2.52-4.94-5.2-2.71-9.19l7-14.47,0,0,1.64-3.25h0l.86-.81-.06,0c.21-.1.43-.2.65-.28l9.45-15.88c2.78-1.83,5.45-.86,8.18.23,5.06,2,10.18,3.89,15.25,5.88,4,1.6,5.26,1.1,6.89-3,4.18-4.32,8.39-8.61,12.52-13,1.72-1.81,3.45-3.6,2-6.6s-2.22-6.06-3.49-9c-1.12-2.62-2.49-5.14-3.75-7.7-.31-.76-.61-1.53-.92-2.3l0,.05c1.07-2.18,2.15-4.36,3.22-6.55l0,0,2.45-1.64,0,0,.84-.82,0,0,3.12-1.78,1.5-1.45,1.05-.83,0,0,10.53-6.49-.05,0,5.68-3.26,0,0,1.74-1.06,1.57-.39.69,0,1-.66c5.47-3.74,7.35-3.54,11.61,1.32.78.89,1.46,1.85,2.18,2.78l1.47,1.28,0,0c2.73,3.87,5.41,7.77,8.24,11.56a2.42,2.42,0,0,0,2.2.4c4.05-1.54,8-3.23,12.05-4.87l4.73-1.44c2.05-.25,4.09-.53,6.14-.72,2.57-.24,3.79-1.59,3.75-4.17,0-2.79,0-5.58,0-8.36l1-10.22c1.8-2.09,2.4-5.38,6.11-5.5a57.87,57.87,0,0,0,6.62-.92c8.8-.24,17.59-.58,26.38-.65,3,0,6.44-.1,9,1.2,1.47.76,1.54,4.21,2.25,6.45,0,.12.17.2.26.31l.71,1.77c-.07.08-.21.2-.19.23a3.91,3.91,0,0,0,.35.48l0-.06a91.84,91.84,0,0,0,.94,10c1.4,7-.57,7.06,7.29,8,1.85.23,3.64.86,5.47,1.24,4.35.88,8.71,1.72,13.07,2.57,5,2.45,6-2.42,8.05-4.69,3.82-4.29,7-9.12,10.49-13.73a69.71,69.71,0,0,1,7.67,1.28c3.4.94,6.7,2.27,10,3.43l0,0c2.4,1.61,4.74,3.32,7.24,4.76a14.22,14.22,0,0,0,3.76,1c3.65,2.44,7.29,4.9,11,7.32,2.48,1.64,3.66,3.38,2.28,6.64-2.23,5.25-3.73,10.81-5.87,16.1-1.29,3.21-2.09,5.85,1.51,8.1a34.14,34.14,0,0,1,4.44,3.93l6.39,6.29,0,0,2.44,2.45,0,0c.55.54,1.09,1.08,1.63,1.63l0,0c2.09,4.44,4.9,4.44,9.82,0,4.37-1.86,9-3.35,13.05-5.68s6.46-.52,8.63,2.31c2.3,3,4.25,6.27,6.35,9.42,1.37,2,2.74,4.07,4.12,6.1l0,0,.85,1.64,0,0,.83,1.65,0,0,2.45,4.06,0,0,.82,1.65,0,0,.83,1.66,0-.05c.5,1.14,1,2.27,1.51,3.4,3.81,6.16,3.81,6.16-4.11,12.82-3.34,2.79-6.59,5.69-10.05,8.32-2.58,2-3,4.09-1.48,6.83a5.42,5.42,0,0,1,.22,1.92c-.06.07-.19.19-.18.21a4.26,4.26,0,0,0,.35.38l.06.07,4,12.13,0-.07c.54,3,1,6,1.65,9,.11.53.76,1.31,1.19,1.33C633.74,268.59,637.54,268.63,641.34,268.72ZM372,283.91c-2.85,8.64-1.36,17.49-1.23,26.27,0,.69.76,1.37,1.17,2.05a31.81,31.81,0,0,1,.83,3.92c.95,11,5.3,21,10.55,30.37,7.68,13.71,17.36,26,31.19,34.12,8.33,4.88,16.88,9.91,26,12.86a94,94,0,0,0,45.84,2.79A105.49,105.49,0,0,0,528.5,379c10.16-7,17.91-16.31,24.48-26.62,14.07-22.07,19-46.16,14.12-71.79-4.31-22.37-15.06-41.44-32.54-56.44-17.84-15.3-38.68-23-62-24.1a88.64,88.64,0,0,0-29.24,3.85c-31.71,9.35-53.47,29.63-65.73,60.11C375.06,270.35,373.86,277.25,372,283.91Z" transform="translate(-0.81 -1.52)"/><path class="cls-4" d="M366,9.64c-4.3,35.44,3.41,67.1,25.36,95.26-5.31,2.41-10.36,4.61-15.34,7A210,210,0,0,0,259.4,265.39c-1.6,9.11-2.22,18.39-3.53,27.55a7.18,7.18,0,0,1-2.59,4.43,223.85,223.85,0,0,1-50.75,26.12,237.67,237.67,0,0,1-53.74,12.65,180.26,180.26,0,0,1-28.51,1.64c-19.47-.7-38.27-4.48-52.59-19.2-15.07-15.49-24.27-34.15-25.2-55.88-.34-8.06,1.75-16.55,4.27-24.35a368,368,0,0,1,14.09-36.13c3-6.78,7.17-13.13,11.35-19.3a258.29,258.29,0,0,1,34.87-41.32c16.94-16.31,33.75-32.68,52.05-47.52a383.66,383.66,0,0,1,60-39.64c21.38-11.52,43.64-21.25,67.05-27.9,16.48-4.68,33.15-8.8,49.88-12.5C345.54,11.93,355.34,11.16,366,9.64Z" transform="translate(-0.81 -1.52)"/><path class="cls-2" d="M359.88,775.19c-4.52.22-8.65.4-12.78.61-19.66,1-39.33.42-58.49-4.13-15.15-3.6-29.94-8.8-44.8-13.58a181,181,0,0,1-53.57-28.3,190.63,190.63,0,0,1-56-66.3c-4.72-9.27-9.53-18.5-14.31-27.74l.74-.8a9,9,0,0,1,2.44,1.23C135.54,648.35,150.7,656.31,166,664c22.27,11.18,46,18.12,70.44,22.53,24,4.32,48.19,6.47,72.55,5a241.64,241.64,0,0,0,56.8-10.66c23-7.14,44.48-17.42,65.21-29.47,6.11-3.55,12.5-6.72,18.22-10.83C456.75,635.09,463.86,629,471,623a365.62,365.62,0,0,1,61.38-41.2,325.88,325.88,0,0,1,54.29-23.58c14.71-4.74,29.75-8.59,44.83-12a335.9,335.9,0,0,1,80.34-7.9A378.73,378.73,0,0,1,770.66,544a400.12,400.12,0,0,1,58.59,15.19c4.73,1.59,9.33,3.54,14,5.32-.12.4-.23.79-.34,1.18-4-.6-8-1.06-12-1.84-23.32-4.6-46.92-5.69-70.59-5.26-13.81.25-27.69.8-41.41,2.36a364,364,0,0,0-103.6,27.47A368.46,368.46,0,0,0,517.84,650,366.92,366.92,0,0,0,393.67,903c-.49,8.58-.46,17.19-.68,25.79a8.72,8.72,0,0,1-.84,3.91C353.53,886.18,343.24,833.85,359.88,775.19Z" transform="translate(-0.81 -1.52)"/><path class="cls-1" d="M406.67,39.31C406,26.84,412.14,17.6,420.93,10c5.36-4.68,12.5-5.29,19.31-5.95,24-2.31,48-3.45,72-1.44a388.53,388.53,0,0,1,42.52,6.2,272.64,272.64,0,0,1,37.19,9.66c21.85,7.6,35,24,41.39,45.71,8.31,28,.52,52.38-18.76,73.43-7.72,8.44-8.16,8.1-17,1a211.32,211.32,0,0,0-71.33-38.14,196.44,196.44,0,0,0-77.79-7.89c-6.54.67-13.05,1.51-19.59,2a4,4,0,0,1-3.25-1.7c-6.1-15-12.11-30-17.88-45.19C406.73,45.1,407,42.1,406.67,39.31Z" transform="translate(-0.81 -1.52)"/><path class="cls-5" d="M309.73,529.35c-1.53.41-3.07,1.17-4.6,1.15-6.49-.06-7.59,4.39-9,9.41-1.59,5.75-1.2,9.4,4.84,12.56,5.47,2.87,5.39,6.5,2,11.87-2.68,4.25-5.27,8.57-7.83,12.9-1.61,2.74-3.71,3-6.4,1.72-3-1.39-6.09-2.58-9.24-3.9-3,3.32-6,6.36-8.59,9.67a5.4,5.4,0,0,0-.64,4.1c.84,3.45,2.09,6.79,3.18,10.17L272,602h0l-.84.82,0,0-1.67.82.05,0-.84.85,0,0c-1.77-.13-3.79-.6-3.3,2.39l0,0-1.59.89,0,0-2.69,1.64-.15,0-2.85,1.64.05,0-3.26,1.66,0,0h-4.92l0,0-.83-.84,0,0-2.46-3.25.05.05-1.21-.87c-3.13-4.7-4.86-4.27-10.9-3.11-7.28,1.41-8.43,5.83-9,11.82-.57,6.39-1.15,6.66-7.35,6.64-5.65,0-11.3.08-16.94-.11-1.2-.05-3.21-1-3.41-1.81-.87-3.66-1.21-7.45-1.88-12.18-4.59-1.1-9.81-2.44-15.09-3.54-.72-.15-1.91.69-2.49,1.39a46.28,46.28,0,0,0-5.23,7c-1.45,2.62-3.06,3-5.45,1.58-5.85-3.36-11.71-6.73-17.58-10.06-2.7-1.53-1.3-3.7-.79-5.56a46.76,46.76,0,0,1,2.68-7.13c1-2.14.19-3.46-1.4-4.76-2.37-1.94-5.17-3.61-6.88-6-2.17-3.08-4.34-2.31-6.85-1.18a51.51,51.51,0,0,0-5.66,2.83c-2.65,1.6-4.53,1.44-6.22-1.48-3-5.27-6.52-10.29-9.43-15.63a5.74,5.74,0,0,1,.51-4.95,24.21,24.21,0,0,1,5.93-5.93c2.4-1.7,2.9-3.37,1.95-6.07-1.1-3.12-1.64-6.45-2.74-9.58a4.06,4.06,0,0,0-2.62-2.29c-3.63-.68-7.35-.86-11-1.52a3.22,3.22,0,0,1-2.1-2.22c-.44-7.08-.74-14.18-.84-21.27a3.92,3.92,0,0,1,2-3,27.85,27.85,0,0,1,7.7-1.95c6.09-.5,6.16-.41,6.78-6.44.15-1.43,0-3.1.63-4.22,2.65-4.34.74-6.67-3-9-3.29-2-7.55-4.16-5.75-9.18,1.42-4,3.72-7.59,5.7-11.34.34-.66,1.15-1.09,1.47-1.75,3.41-7.1,6.64-8,13.41-3.84a29.4,29.4,0,0,0,4.15,1.84c3-2.76,5.77-5.25,8.49-7.79,2.14-2,3-4.08,1.22-7a24.41,24.41,0,0,1-3.12-7.45,5.13,5.13,0,0,1,1.43-4.37c5.06-3.64,10.39-6.91,15.63-10.31,4.3-2.79,6.75-1.23,9.45,2.86,4.28,6.47,4.51,5,11.74,4.17,8.08-.9,9.54-5.61,9.29-11.56-.26-6.19,3.65-6.34,7.63-6.53,6-.29,12-.25,18-.09.85,0,2.16,1.43,2.38,2.39.76,3.36.9,6.87,1.76,10.21a5.28,5.28,0,0,0,3,3.34c4.08,1.1,8.31,1.64,12.88,2.48a88.82,88.82,0,0,1,5.8-8.34c1.71-2,4-3.49,7-1.82,5.76,3.24,11.62,6.29,17.29,9.67.82.5,1.37,2.55,1.09,3.62-.89,3.33-2.37,6.49-3.33,9.81a4,4,0,0,0,.75,3.26c2.14,2.37,4.91,4.22,6.8,6.74,2.77,3.7,5.45,2.6,8.55.83a26.73,26.73,0,0,1,5.75-2.6c4.85-1.37,6.14,3.29,8.12,5.76,2.77,3.45,4.19,8,6.55,11.79,1.8,2.91.53,4.76-1.45,6.55-1.58,1.44-3.33,2.7-5,4l-1.22.84,0,0-.84.83,0,0c-.53.44-1.6,1.07-1.52,1.31,1.22,3.63,2.6,7.22,3.94,10.81l0-.05.25,1.35c.2.81.39,1.62.58,2.43,1.07.62,2.08,1.58,3.22,1.8,3.72.72,7.5,1.17,11.25,1.72.29,6,.86,12,.73,18C312.19,524.65,310.62,527,309.73,529.35Zm-46.42-10.21c.85-29.3-23.3-55-54.31-55a54.82,54.82,0,0,0-2.71,109.57C238.6,575.3,264.33,548.15,263.31,519.14Z" transform="translate(-0.81 -1.52)"/><path class="cls-6" d="M518.27,145.1c-4.36-.85-8.72-1.69-13.07-2.57-1.83-.38-3.62-1-5.47-1.24-7.86-.94-5.89-1-7.29-8a91.84,91.84,0,0,1-.94-10c.83,4.29,1.91,8.55,2.38,12.87.27,2.4,1.11,3,3.34,3.39,6.44,1.18,12.8,2.75,19.17,4.24C517.08,144,517.65,144.66,518.27,145.1Z" transform="translate(-0.81 -1.52)"/><path class="cls-7" d="M347.08,195.83c-1.63,4.12-2.85,4.62-6.89,3-5.07-2-10.19-3.87-15.25-5.88-2.73-1.09-5.4-2.06-8.18-.23,1.18-2.68,3.23-2.87,5.68-2,5.53,2,11.15,3.76,16.58,6C342.07,198,344.69,198.77,347.08,195.83Z" transform="translate(-0.81 -1.52)"/><path class="cls-8" d="M628.71,333.2c.31-3,.46-6,1-9a3.49,3.49,0,0,1,2.2-2.3c7.06-1.2,14.17-2.18,21.26-3.22-5.29,1.18-10.55,2.65-15.9,3.47-4.3.65-7.44,1.71-7.21,6.94C630.13,330.44,629.19,331.83,628.71,333.2Z" transform="translate(-0.81 -1.52)"/><path class="cls-9" d="M290.55,329.88c4.47.15,9-.14,13.39.53,8.44,1.29,8.41,1.51,10.19,10.16.3,1.43.42,2.89.62,4.33a78.45,78.45,0,0,1-2.38-8.67c-.48-3-1.87-3.86-4.79-4.1C301.88,331.67,296.23,330.66,290.55,329.88Z" transform="translate(-0.81 -1.52)"/><path class="cls-10" d="M490.66,120.89c-.09-.11-.22-.19-.26-.31-.71-2.24-.78-5.69-2.25-6.45-2.54-1.3-5.94-1.23-9-1.2-8.79.07-17.58.41-26.38.65,0-.26,0-.52,0-.78h0l4.05-.72,8.9,0,13,0c1.05,0,2.1,0,3.16,0C490.78,112,490.78,112,490.66,120.89Z" transform="translate(-0.81 -1.52)"/><path class="cls-11" d="M424.44,144.91c-4,1.64-8,3.33-12.05,4.87a2.42,2.42,0,0,1-2.2-.4c-2.83-3.79-5.51-7.69-8.24-11.56,2.52,2.83,5.22,5.54,7.52,8.54,1.37,1.78,2.52,2.28,4.69,1.51C417.51,146.67,421,145.88,424.44,144.91Z" transform="translate(-0.81 -1.52)"/><path class="cls-11" d="M313.16,262.85C312.49,266.91,312,271,311,275a4.84,4.84,0,0,1-3.17,2.82c-4.54.93-9.16,1.41-13.74,2.07a39.88,39.88,0,0,1,6.26-2.28c9.59-1.79,9.57-1.72,11.29-11.27A16.24,16.24,0,0,1,313.16,262.85Z" transform="translate(-0.81 -1.52)"/><path class="cls-12" d="M284.91,281.5c-.54,7.79-1.17,15.57-1.58,23.37-.21,3.94,0,7.9,0,11.85-.31-2.74-.83-5.47-.87-8.21-.12-6.81-.22-13.63.1-20.42C282.69,285.86,284.1,283.69,284.91,281.5Z" transform="translate(-0.81 -1.52)"/><path class="cls-9" d="M489.09,485.72a31.69,31.69,0,0,1,5-.74c3.72,0,5.2-2,5.54-5.36.26-2.5.5-5,.91-7.47.1-.61.83-1.12,1.28-1.67-.43,3-.92,6-1.28,9.08-.72,6.06-1.7,6.9-8.24,6.88Z" transform="translate(-0.81 -1.52)"/><path class="cls-13" d="M657.85,288.83c-.47-3.67-1.31-7.33-1.31-11,0-4.32-2-6.52-5.9-7.49,5.64-.68,5.75-.69,6.5,5,.59,4.47.87,9,1.28,13.47Z" transform="translate(-0.81 -1.52)"/><path class="cls-14" d="M641.34,268.72c-3.8-.09-7.6-.13-11.39-.33-.43,0-1.08-.8-1.19-1.33-.62-3-1.11-6-1.65-9l2.93,8.54Z" transform="translate(-0.81 -1.52)"/><path class="cls-15" d="M554.52,131.39c-3.34-1.16-6.64-2.49-10-3.43a69.71,69.71,0,0,0-7.67-1.28c1.56-.55,3.45-1.94,4.62-1.49C545.92,126.94,550.17,129.27,554.52,131.39Z" transform="translate(-0.81 -1.52)"/><path class="cls-16" d="M309.73,529.35c.89-2.36,2.46-4.7,2.51-7.07.13-6-.44-12-.73-18h.39l.39,0c.31,7.84.74,15.68.84,23.53C313.15,529.63,312,531.29,309.73,529.35Z" transform="translate(-0.81 -1.52)"/><path class="cls-7" d="M607.71,404.22c2.7.6,5.58.81,8.06,1.91,3.32,1.48,6.28,1.75,9.34-.31-1.5,3.34-3.83,4-7.15,2.53S611.13,405.58,607.71,404.22Z" transform="translate(-0.81 -1.52)"/><path class="cls-17" d="M451.15,484.9l19.4.94a5.81,5.81,0,0,0,0,.59c-5.88,0-11.76.11-17.64,0C452.32,486.45,451.73,485.44,451.15,484.9Z" transform="translate(-0.81 -1.52)"/><path class="cls-8" d="M439.07,130.22c0,2.78-.05,5.57,0,8.36,0,2.58-1.18,3.93-3.75,4.17-2.05.19-4.09.47-6.14.72,1.19-.48,2.35-1.28,3.56-1.37,4.77-.36,5.56-3.41,5.51-7.35A24,24,0,0,1,439.07,130.22Z" transform="translate(-0.81 -1.52)"/><path class="cls-6" d="M429.88,456.7l16.43,3.24Z" transform="translate(-0.81 -1.52)"/><path class="cls-18" d="M581.93,429.48c-1.56-2.8-4-5.51-4.31-8.43-.16-1.67,3.26-3.68,5.06-5.53-4.78,3.58-3.72,7.75-1.25,12.1A7.5,7.5,0,0,1,581.93,429.48Z" transform="translate(-0.81 -1.52)"/><path class="cls-8" d="M304.26,212.88l-7,14.47Z" transform="translate(-0.81 -1.52)"/><path class="cls-18" d="M364.8,441.17c-.49,2.34-.61,4.83-1.56,7-1.06,2.4-.88,4.27.74,6.16-2.8.21-3.66-1.47-3-3.71C362.05,447.37,363.52,444.3,364.8,441.17Z" transform="translate(-0.81 -1.52)"/><path class="cls-11" d="M386.2,468l13.32,6.1Z" transform="translate(-0.81 -1.52)"/><path class="cls-19" d="M452.75,112.8c0,.26,0,.52,0,.78a57.87,57.87,0,0,1-6.62.92c-3.71.12-4.31,3.41-6.11,5.5,1.27-6,1.52-6.28,8.3-7C449.81,112.8,451.29,112.85,452.75,112.8Z" transform="translate(-0.81 -1.52)"/><path class="cls-20" d="M657.85,288.83l.57-.05c0,7.1.09,14.2.07,21.31a7.54,7.54,0,0,1-.69,2.16Q657.82,300.53,657.85,288.83Z" transform="translate(-0.81 -1.52)"/><path class="cls-14" d="M627.13,258.15l-4-12.13Z" transform="translate(-0.81 -1.52)"/><path class="cls-14" d="M312.29,504.28l-.39,0h-.39c-3.75-.55-7.53-1-11.25-1.72-1.14-.22-2.15-1.18-3.22-1.8,4.24.6,8.48,1.12,12.69,1.86C310.65,502.79,311.44,503.71,312.29,504.28Z" transform="translate(-0.81 -1.52)"/><path class="cls-11" d="M554.49,467.2l11.8-6.5Z" transform="translate(-0.81 -1.52)"/><path class="cls-15" d="M565.49,137.08a14.22,14.22,0,0,1-3.76-1c-2.5-1.44-4.84-3.15-7.24-4.76Z" transform="translate(-0.81 -1.52)"/><path class="cls-21" d="M470.55,486.43a5.81,5.81,0,0,1,0-.59l18.54-.12,3.19.72Z" transform="translate(-0.81 -1.52)"/><path class="cls-8" d="M376.11,137.81l-10.53,6.49Z" transform="translate(-0.81 -1.52)"/><path class="cls-22" d="M599,189.48c-4.92,4.43-7.73,4.43-9.82,0C592.48,192.9,595.76,189.86,599,189.48Z" transform="translate(-0.81 -1.52)"/><path class="cls-23" d="M296.23,497c-1.34-3.59-2.72-7.18-3.94-10.81-.08-.24,1-.87,1.52-1.31l1.92,9.83C295.88,495.52,296.06,496.28,296.23,497Z" transform="translate(-0.81 -1.52)"/><path class="cls-8" d="M372.84,460.72q4.83,2.77,9.64,5.57Q377.67,463.5,372.84,460.72Z" transform="translate(-0.81 -1.52)"/><path class="cls-22" d="M585.2,185.46l-6.39-6.29Z" transform="translate(-0.81 -1.52)"/><path class="cls-7" d="M517.24,454.21l9.83-3.17Z" transform="translate(-0.81 -1.52)"/><path class="cls-19" d="M478.71,112l-13,0Z" transform="translate(-0.81 -1.52)"/><path class="cls-6" d="M631.18,201.63c-1.38-2-2.75-4.07-4.12-6.1C628.43,197.56,629.8,199.6,631.18,201.63Z" transform="translate(-0.81 -1.52)"/><path class="cls-22" d="M356.72,150.72c-1.07,2.19-2.15,4.37-3.22,6.55C351,153.32,354.3,152.24,356.72,150.72Z" transform="translate(-0.81 -1.52)"/><path class="cls-6" d="M343.83,409.1c2.54-3.12,4.29-3.38,5.65-.84Z" transform="translate(-0.81 -1.52)"/><path class="cls-8" d="M381.74,134.59l-5.68,3.26Z" transform="translate(-0.81 -1.52)"/><path class="cls-7" d="M527.05,451.06c.86-.53,2.22-1.68,2.49-1.46a13.84,13.84,0,0,1,2.32,3.07Z" transform="translate(-0.81 -1.52)"/><path class="cls-11" d="M545.73,468.72l5.55.08C549.41,470.22,547.54,471.6,545.73,468.72Z" transform="translate(-0.81 -1.52)"/><path class="cls-8" d="M640,380c.82-1.89,1.64-3.79,2.45-5.68C641.68,376.24,640.86,378.14,640,380Z" transform="translate(-0.81 -1.52)"/><path class="cls-8" d="M637.63,384.87l2.44-4.88Z" transform="translate(-0.81 -1.52)"/><path class="cls-6" d="M351.86,410.68l4.08,4.05Z" transform="translate(-0.81 -1.52)"/><path class="cls-18" d="M250.16,612.46h4.92C253.44,614,251.8,615.61,250.16,612.46Z" transform="translate(-0.81 -1.52)"/><path class="cls-12" d="M290.71,279.9l-5.83,1.63Z" transform="translate(-0.81 -1.52)"/><path class="cls-17" d="M449.79,479.39c.46,1.85.92,3.71,1.39,5.56C450.71,483.1,450.25,481.24,449.79,479.39Z" transform="translate(-0.81 -1.52)"/><path class="cls-6" d="M635.24,208.88l-2.45-4.06Z" transform="translate(-0.81 -1.52)"/><path class="cls-18" d="M265.5,606.77c-.49-3,1.53-2.52,3.3-2.39Z" transform="translate(-0.81 -1.52)"/><path class="cls-18" d="M272,602l1.44-3C275.05,601,273.68,601.56,272,602Z" transform="translate(-0.81 -1.52)"/><path class="cls-6" d="M359.13,417.94l3.26,2.84Z" transform="translate(-0.81 -1.52)"/><path class="cls-6" d="M638.33,215.47c-.5-1.13-1-2.26-1.51-3.4C637.32,213.21,637.83,214.34,638.33,215.47Z" transform="translate(-0.81 -1.52)"/><path class="cls-22" d="M363.06,146.56l-3.12,1.78Z" transform="translate(-0.81 -1.52)"/><path class="cls-18" d="M246.92,608.41l2.46,3.25Z" transform="translate(-0.81 -1.52)"/><path class="cls-11" d="M551.26,468.82l3.26-1.65Z" transform="translate(-0.81 -1.52)"/><path class="cls-8" d="M305.87,209.67l-1.64,3.25Z" transform="translate(-0.81 -1.52)"/><path class="cls-22" d="M587.62,187.88l-2.44-2.45Z" transform="translate(-0.81 -1.52)"/><path class="cls-18" d="M584.26,435l-1.52-3.81C583.24,432.49,583.75,433.76,584.26,435Z" transform="translate(-0.81 -1.52)"/><path class="cls-18" d="M364,454.29l2.36,1.3Z" transform="translate(-0.81 -1.52)"/><path class="cls-18" d="M255.06,612.49l3.26-1.66C257.23,611.38,256.14,611.93,255.06,612.49Z" transform="translate(-0.81 -1.52)"/><path class="cls-8" d="M368,457.49l2.45,1.64Z" transform="translate(-0.81 -1.52)"/><path class="cls-8" d="M370.43,459.11l2.45,1.63Z" transform="translate(-0.81 -1.52)"/><path class="cls-18" d="M261.27,609.26l2.69-1.64Z" transform="translate(-0.81 -1.52)"/><path class="cls-19" d="M456.81,112.09l-4.05.72Z" transform="translate(-0.81 -1.52)"/><path class="cls-18" d="M258.27,610.87l2.85-1.64Z" transform="translate(-0.81 -1.52)"/><path class="cls-22" d="M359.14,149.12l-2.45,1.64Z" transform="translate(-0.81 -1.52)"/><path class="cls-8" d="M635.2,388.92c.54-.82,1.09-1.64,1.64-2.46C636.29,387.28,635.74,388.1,635.2,388.92Z" transform="translate(-0.81 -1.52)"/><path class="cls-7" d="M531.84,452.65l1.64,1.92Z" transform="translate(-0.81 -1.52)"/><path class="cls-22" d="M589.23,189.49c-.54-.55-1.08-1.09-1.63-1.63C588.15,188.4,588.69,188.94,589.23,189.49Z" transform="translate(-0.81 -1.52)"/><path class="cls-8" d="M634.39,390.92l.84-2.06Z" transform="translate(-0.81 -1.52)"/><path class="cls-6" d="M350.25,409.05l1.63,1.65Z" transform="translate(-0.81 -1.52)"/><path class="cls-11" d="M402,137.85l-1.47-1.28Z" transform="translate(-0.81 -1.52)"/><path class="cls-7" d="M606,403.45l1.72.79Z" transform="translate(-0.81 -1.52)"/><path class="cls-6" d="M357.52,416.32l1.63,1.64Z" transform="translate(-0.81 -1.52)"/><path class="cls-22" d="M353.47,157.22c.31.77.61,1.54.92,2.3C354.08,158.76,353.78,158,353.47,157.22Z" transform="translate(-0.81 -1.52)"/><path class="cls-6" d="M355.91,414.69l1.63,1.65Z" transform="translate(-0.81 -1.52)"/><path class="cls-8" d="M643.28,372.76l.72-2.5Z" transform="translate(-0.81 -1.52)"/><path class="cls-8" d="M383.46,133.55l-1.74,1.06Z" transform="translate(-0.81 -1.52)"/><path class="cls-23" d="M296.46,498.34l-.25-1.35Z" transform="translate(-0.81 -1.52)"/><path class="cls-18" d="M269.56,603.59l1.67-.82Z" transform="translate(-0.81 -1.52)"/><path class="cls-18" d="M263.93,607.64l1.59-.89Z" transform="translate(-0.81 -1.52)"/><path class="cls-8" d="M636.82,386.48c.28-.54.55-1.09.83-1.64C637.37,385.39,637.1,385.94,636.82,386.48Z" transform="translate(-0.81 -1.52)"/><path class="cls-6" d="M636.85,212.12l-.83-1.66Z" transform="translate(-0.81 -1.52)"/><path class="cls-8" d="M642.47,374.38l.83-1.65Z" transform="translate(-0.81 -1.52)"/><path class="cls-11" d="M544.5,467.43a2.27,2.27,0,0,0,.26.49Z" transform="translate(-0.81 -1.52)"/><path class="cls-6" d="M636,210.5l-.82-1.65Z" transform="translate(-0.81 -1.52)"/><path class="cls-18" d="M585.75,438l-.62-.66Z" transform="translate(-0.81 -1.52)"/><path class="cls-6" d="M632.81,204.85,632,203.2Z" transform="translate(-0.81 -1.52)"/><path class="cls-6" d="M632,203.23l-.85-1.64Z" transform="translate(-0.81 -1.52)"/><path class="cls-8" d="M367,456.68l1.07.83Z" transform="translate(-0.81 -1.52)"/><path class="cls-18" d="M582.76,431.2l-.84-1.57Z" transform="translate(-0.81 -1.52)"/><path class="cls-6" d="M446.28,459.92l.79,1Z" transform="translate(-0.81 -1.52)"/><path class="cls-14" d="M623.08,246a4.26,4.26,0,0,1-.35-.38s.12-.14.18-.21A4.36,4.36,0,0,1,623.08,246Z" transform="translate(-0.81 -1.52)"/><path class="cls-8" d="M306.72,208.87l-.86.81Z" transform="translate(-0.81 -1.52)"/><path class="cls-18" d="M271.19,602.8,272,602Z" transform="translate(-0.81 -1.52)"/><path class="cls-22" d="M360,148.32l-.84.82Z" transform="translate(-0.81 -1.52)"/><path class="cls-6" d="M491.53,123.37a3.91,3.91,0,0,1-.35-.48s.12-.15.19-.23A1.93,1.93,0,0,1,491.53,123.37Z" transform="translate(-0.81 -1.52)"/><path class="cls-18" d="M268.77,604.4l.84-.85Z" transform="translate(-0.81 -1.52)"/><path class="cls-8" d="M365.61,144.28l-1.05.83Z" transform="translate(-0.81 -1.52)"/><path class="cls-18" d="M245.76,607.59l1.21.87Z" transform="translate(-0.81 -1.52)"/><path class="cls-8" d="M385.72,133.13l-.69,0A.76.76,0,0,1,385.72,133.13Z" transform="translate(-0.81 -1.52)"/><path class="cls-23" d="M293.78,484.94l.84-.83Z" transform="translate(-0.81 -1.52)"/><path class="cls-8" d="M307.31,208.62c-.22.08-.44.18-.65.28A.69.69,0,0,1,307.31,208.62Z" transform="translate(-0.81 -1.52)"/><path class="cls-6" d="M343.14,409.51l.73-.46Z" transform="translate(-0.81 -1.52)"/><path class="cls-18" d="M249.36,611.64l.83.84Z" transform="translate(-0.81 -1.52)"/><path class="cls-6" d="M349.46,408.23l.83.85Z" transform="translate(-0.81 -1.52)"/><path class="cls-23" d="M294.59,484.14l1.22-.84Z" transform="translate(-0.81 -1.52)"/><path class="cls-24" d="M372,283.91,372,312.23c-.41-.68-1.16-1.36-1.17-2.05C370.67,301.4,369.18,292.55,372,283.91Z" transform="translate(-0.81 -1.52)"/><path class="cls-25" d="M484.84,340c-3,.75-5.74,2-8.34,1.91-4.87-.27-7.81-4.95-6.47-10,1.17-4.36,3.4-8.47,4.31-12.87,1.3-6.24,1.85-12.63,2.62-19,.08-.68-.52-1.44-.67-1.85-4.67,6.56-9.38,13.13-14,19.74-4.49,6.41-9.41,12.59-13.19,19.39-3,5.35-3.7,11.61-.29,17.33,1.32,2.21,3.57,3.84,5.23,5.87,1.37,1.66,3.93,4.37,3.48,5.13-1.71,2.83-4.43,1-6.62,0-14.69-6.54-25.4-23.82-22.82-42.24,2-14,8.53-25.77,17-36.69,6.29-8.09,13.31-15.73,18.7-24.38,5.9-9.45,6.7-19.66-.76-29.29-.7-.9-.31-2.65-.43-4,1.32,0,2.86-.44,3.94.08,18.66,8.84,32.93,22.28,40.9,41.48,11.91,28.68,9.25,61.11-12.68,85.72-2.18,2.44-5.11,4.25-7.87,6.08-.89.59-2.35.32-3.55.45-.13-1.25-.81-2.84-.28-3.69C486.93,353,486.12,346.48,484.84,340Z" transform="translate(-0.81 -1.52)"/></g></g></svg>