<svg xmlns="http://www.w3.org/2000/svg" viewBox="0 0 899.99 839.36"><defs><style>.cls-1{fill:#fff;}</style></defs><title>Asset 1</title><g id="Layer_2" data-name="Layer 2"><g id="Layer_1-2" data-name="Layer 1"><g id="Layer_2-2" data-name="Layer 2"><g id="Layer_1-2-2" data-name="Layer 1-2"><path class="cls-1" d="M351.57,839.36c-3.35-4.56-6.84-9-10.05-13.69a143.71,143.71,0,0,1-24.25-63.06,148.46,148.46,0,0,1,4.31-60.69c.37-1.35.56-2.76,1-4.74-2.72,0-5-.15-7.22,0a196.37,196.37,0,0,1-65.85-5.57,285.85,285.85,0,0,1-49.44-17.48,171.49,171.49,0,0,1-62.33-49.83c-13-16.57-22.4-35.26-30.94-54.4a7.47,7.47,0,0,1-.42-1.29,4.18,4.18,0,0,1,.27-.86,4.69,4.69,0,0,1,1.13.74c8.94,10.62,21,17,32.76,23.64a201.92,201.92,0,0,0,45.53,18.62c10,2.78,20.26,4.48,30.48,6.28,8.83,1.58,17.83,2.7,26.83,3.78,4.18.51,8.44.42,12.67.55a216.55,216.55,0,0,0,72.22-9.85c22.75-7.13,43.63-18,64.32-29.74,14.21-8,25.85-19,38.52-28.83a339.69,339.69,0,0,1,42-27.76,311.8,311.8,0,0,1,44.35-20.57,335.19,335.19,0,0,1,69.77-17.8,326.6,326.6,0,0,1,58.95-3.37,343.65,343.65,0,0,1,107.89,21.61,38.91,38.91,0,0,1,8.78,4.49c-2-.4-4-.9-6-1.19-14.24-2-28.43-4.62-42.73-5.69-13.13-1-26.38-.38-39.57-.3-20.14.12-40,2.91-59.64,7a330.47,330.47,0,0,0-189.2,116.56,334.54,334.54,0,0,0-31.92,48,328.4,328.4,0,0,0-33,88,286.91,286.91,0,0,0-7,51.28c-.33,8.7-.51,17.4-.76,26.11Z"/><path class="cls-1" d="M0,328.7c.43-3.22,1.07-6.43,1.24-9.66.82-15.93,4.25-31.34,9-46.52a48.13,48.13,0,0,1,2-4.61l4.43,7.7q20.8,35.81,60.8,46.59c5.71,1.54,11.36,3.38,17.14,4.54,11,2.2,22.14,2.29,33.24,1.42,9.38-.74,18.8-1.66,28.05-3.32,19.34-3.46,38.35-8,54.62-20.07,5.63-4.15,11.52-7.95,17.3-11.89a18.65,18.65,0,0,1,2-1c.42,2.32.87,4.38,1.15,6.46a186.5,186.5,0,0,0,29.27,77.39c2.24,3.42,2,4.5-.95,6.59-1.8,1.27-3,.47-4.55-.47-7-4.3-13.79-9-21.15-12.56a100.93,100.93,0,0,0-36.6-9.45,108.71,108.71,0,0,0-49.7,7.69,98.73,98.73,0,0,0-30,18.7c-14.88,13.7-28.07,28.7-36.18,47.6-5.91,13.78-9.73,27.95-9.73,42.9,0,8.19.87,16.39,1.28,24.58.12,2.39,0,4.79,0,7.18l-.84.54c-2.06-2.08-4.21-4.07-6.16-6.25C50.8,486.13,37.54,468.32,27,448.61c-9.45-17.7-16.76-36.28-20.9-55.87-2.64-12.52-3.72-25.32-5.49-38-.13-.95-.4-1.87-.61-2.81Z"/><path class="cls-1" d="M599.38,27.33c7.39,2.09,14.14,3.54,20.55,5.9,13.37,4.92,26.77,9.84,39.77,15.63,21.72,9.66,41.85,22.11,60.85,36.43a336.47,336.47,0,0,1,37.08,32.46c6.46,6.55,12.43,13.49,17,21.56,3.18,5.58,2.85,11.63,3.06,17.65,0,.6-.19,1.21-.18,1.8.4,13.36-6.34,23.14-15,32.58-10.18,11.13-22.91,17.53-36.91,21-19.36,4.79-38.52,3.55-55.86-7.68-11.18-7.24-18-17.5-18.78-31.07a25.22,25.22,0,0,1,6.49-18.35c1-1.2,2.81-1.82,4.33-2.52,6.82-3.14,11.24-8,12.48-15.71,1.38-8.6-4.66-18.35-13-21.09-7.66-2.51-13.85-.43-18.93,5.35a158,158,0,0,0-12.59,15.45c-15.89,23.56-15.86,54.86.85,77.76,12.78,17.53,29.8,29.09,51.52,33.88a125.43,125.43,0,0,0,36.11,2.25A94.77,94.77,0,0,0,756.86,239c30.38-16.42,48.92-41.73,56.35-75.32.59-2.65.92-5.36,1.51-8.89,1.64,1.5,2.75,2.35,3.66,3.38,22,25.06,40.53,52.41,54.48,82.74,6.52,14.16,12.52,28.55,16.52,43.71,2.74,10.39,6.06,20.69,8,31.23,7.15,38.19-.08,73.13-25.19,103.49a114.28,114.28,0,0,1-59.72,38.28c-12.39,3.32-25,5.51-37.89,5.51-2.69,0-5.39-.88-8.06-1.45-8.26-1.75-16.75-2.8-24.7-5.47-17-5.71-27.67-17.93-31.72-35.31-6-25.47,7.5-51.06,33.31-59A49.26,49.26,0,0,1,776.47,363a11,11,0,0,0,8.37,0,29.41,29.41,0,0,0,13.08-46.37,8,8,0,0,0-5.37-3.2c-19.16-3.06-37.62-.33-55.46,6.8-24.93,10-43.63,27.05-56,50.77-7.67,14.65-12,30.34-12,47,0,5.19.4,10.38.59,15.57,0,.92-.08,1.85-.15,3.11-2.89-.61-5.5-1-8-1.72a124.28,124.28,0,0,0-33-4.43c-13.67.15-27.38-.05-41,.92A244.58,244.58,0,0,0,537,440.78a270.73,270.73,0,0,0-48.78,19.34c-12.69,6.49-25.16,13.49-37.84,19.83-8.52,4.28-17.57,7.54-26,12-17,8.94-33.83,18.23-50.59,27.62-11.06,6.21-21.59,13.42-32.89,19.14-9.22,4.66-19.22,7.79-28.89,11.55-2.14.83-4.34,1.5-6.51,2.23-8.92,3-17.71,6.52-26.8,8.92-7.08,1.88-14.51,2.46-21.81,3.48-4.42.63-8.87,1-13.31,1.48a8.7,8.7,0,0,1-4.16-.58,15.92,15.92,0,0,1,1.74-1.32,110,110,0,0,0,36.22-33.4,105.39,105.39,0,0,0,17.69-46,6.8,6.8,0,0,0-1-4c-7.81-13.25-2.3-29,10.16-35.87,9.67-5.32,19.15-6.26,29.16-2.06,6.9,2.89,13.76,5.88,20.48,9.16a109,109,0,0,0,59.82,10.83c5.53-.55,11.14-.47,16.62-1.3,8.46-1.27,16.94-2.69,25.23-4.75,11.47-2.85,22.95-5.88,34.12-9.7C508.23,441,525,431.21,540.38,419a186.06,186.06,0,0,0,55.72-72.22,182.29,182.29,0,0,0,14.74-55.87c3.49-36.26-2.38-70.89-18.55-103.6a171.64,171.64,0,0,0-20.76-32.73c-1.85-2.27-2.27-3.84.07-6.09a111.66,111.66,0,0,0,27.3-42.34c6.28-16.94,8.61-34.44,5.54-52.41-1.26-7.37-2.9-14.68-4.35-22C599.86,30.61,599.73,29.45,599.38,27.33Z"/><path class="cls-1" d="M514,153.61c5.73,5.53,11.32,11,17.09,16.33a4.37,4.37,0,0,0,3.75.51c5.53-2.11,11-4.38,16.38-6.85,2.8-1.29,4.51-.38,6.18,1.77a157.31,157.31,0,0,1,18.69,30.93c1.1,2.39-.11,3.7-1.61,5-4.43,3.75-8.86,7.5-13.43,11.08-1.83,1.43-2.11,2.67-1.35,4.9,2.06,6,3.94,12.19,5.5,18.39.67,2.69,1.9,3.82,4.55,4.08,5.65.55,11.28,1.32,16.93,1.93,2.68.29,4,1.42,4.08,4.36.31,10.5.89,21,1.24,31.48a15.53,15.53,0,0,1-.83,5.7,4.8,4.8,0,0,1-2.83,2.68c-5.63,1.37-11.31,2.57-17,3.54-2.93.49-4.27,1.65-4.82,4.76a135.88,135.88,0,0,1-4.1,16.51c-.88,2.83-.23,4.46,2,6.07,4.53,3.22,8.87,6.69,13.39,9.92,2.39,1.71,2.66,3.38,1.53,6.16A185.09,185.09,0,0,1,563,363.48c-2.64,4.08-3.9,4.51-8.42,2.86-5.11-1.86-10.23-3.69-15.27-5.72-1.93-.78-3.11-.35-4.43,1.09-4.09,4.45-8.22,8.87-12.49,13.13-1.77,1.76-2.39,3.22-1.2,5.67,2.47,5.12,4.51,10.44,6.88,15.6,1.15,2.51.76,4.31-1.42,6a171,171,0,0,1-31.69,19.63c-2.55,1.19-4.25.77-6-1.37-3.54-4.44-7.28-8.72-10.83-13.15-1.5-1.86-2.93-2.28-5.32-1.46-5.7,2-11.52,3.62-17.35,5.21-2.25.61-3.45,1.45-3.65,4.07-.47,5.89-1.39,11.75-2.1,17.62-.31,2.59-2,3.83-4.32,4.17a37.91,37.91,0,0,1-5.43.26c-10.39,0-20.79-.09-31.18,0-2.73,0-3.93-1-4.32-3.63-.87-5.86-2-11.67-2.84-17.53a2.91,2.91,0,0,0-2.6-2.87q-10.08-2.25-20.1-4.76a3.84,3.84,0,0,0-4.66,1.67q-4.71,6.67-9.62,13.19c-2.7,3.6-3.49,3.88-7.63,2.2a167.66,167.66,0,0,1-31.36-17.27c-2-1.32-1.77-2.92-1.08-4.76,2-5.43,4-10.9,6.11-16.3.8-2,.78-3.47-1-5.08q-7.83-7-15.3-14.42c-1.49-1.46-2.65-1.11-4.19-.42-5.19,2.31-10.45,4.45-15.61,6.83-2.79,1.28-4.69.72-6.55-1.73a170.76,170.76,0,0,1-18-29.28c-1.81-3.76-1.73-4.32,1.52-7.1,3.86-3.31,7.73-6.59,11.71-9.74,2.35-1.86,3.26-3.67,2.19-6.82-2-5.92-3.55-12-5.2-18.07a3.59,3.59,0,0,0-3.5-3c-6-.59-12-1.44-18-2-2.54-.23-3.45-1.36-3.87-3.8-2-11.53-1.5-23.15-1.34-34.75.06-4.88,1.32-6,6.1-6.84,5.36-.92,10.73-1.78,16-3a5,5,0,0,0,3-3c1.74-6.28,3.05-12.67,4.75-19,.58-2.16,0-3.29-1.73-4.5-4.87-3.38-9.55-7-14.4-10.41-2.2-1.55-2.48-3.3-1.52-5.63a144.3,144.3,0,0,1,18.15-32.53c1.72-2.26,3.62-3,6.29-2,5.2,1.95,10.47,3.73,15.64,5.76a4.17,4.17,0,0,0,5.36-1.29c4.09-4.6,8.36-9,12.64-13.46a3.19,3.19,0,0,0,.75-4.15c-2.42-5.14-4.69-10.35-6.92-15.58-1.64-3.87-1.41-4.6,1.8-7.09a148,148,0,0,1,30.21-18.56c4.19-1.88,4.62-1.94,7.73,1.6,3.59,4.08,7,8.29,10.42,12.53,1.1,1.38,2.13,2.13,4,1.54,6.45-2.06,13-3.87,19.35-6.14,1.14-.41,2.15-2.48,2.37-3.91.75-5,1.14-10.07,1.64-15.12.45-4.39,1-5.17,5.38-5.88,12.35-2,24.78-2.06,37.24-1.26,2,.13,2.63,1.35,2.93,3,1.09,6.18,2.3,12.35,3.22,18.56.31,2.06,1.08,2.78,3.1,3.19,6.15,1.24,12.28,2.64,18.34,4.28,2.73.74,4.38.42,6-2.12a148.47,148.47,0,0,1,9.05-12.12c2.84-3.51,4.39-3.87,8.54-2.1A182.11,182.11,0,0,1,519.48,129c1.94,1.31,2.24,2.8,1.45,5C518.57,140.45,516.38,147,514,153.61ZM421.77,357.06c49.4-.31,89.39-38.79,89.32-88.82s-38.82-88.88-89.11-89c-49.28-.1-90.74,40.26-88.43,93.14C335.58,318.9,373.38,356.27,421.77,357.06Z"/><path class="cls-1" d="M328.8,7.76c-3.65,31.85,3.26,60.38,23.22,85.85l-10.64,4.74a186.58,186.58,0,0,0-70.69,55.36c-19.93,25.19-32.36,53.72-37.86,85.28-1.32,7.6-1.93,15.34-2.73,23a7.19,7.19,0,0,1-3.58,5.77,206.93,206.93,0,0,1-51.31,25A187.16,187.16,0,0,1,129.5,302c-7.23.47-14.5,1.63-21.68,1.24-10-.53-20-1.12-29.44-5.21-14.62-6.35-25.46-16.47-31.9-31.1A179.43,179.43,0,0,1,39,248.45c-3.7-11.88-2.16-23.71,2-35.2,3.63-10,7.32-20,11.48-29.75a88.89,88.89,0,0,1,8.87-16.18c6.36-9.1,12.74-18.32,20.19-26.52A546.94,546.94,0,0,1,139,86.07a348.63,348.63,0,0,1,82.62-50.4,357.42,357.42,0,0,1,46-16.5A332,332,0,0,1,328.8,7.76Z"/><path class="cls-1" d="M430.84,0c23.85.59,42.27,1.68,60.54,5,14.16,2.61,28.25,5.5,41.71,10.61,15.58,5.88,26.46,17,33.19,32.22,4.16,9.4,7,19.2,6.17,29.56C571,96.85,564,113.79,548.67,126.6c-4.41,3.68-4.51,3.72-8.75.11a186.5,186.5,0,0,0-55.18-32.89,173.63,173.63,0,0,0-48.86-11.36c-14.77-1.11-29.46-1.06-44.11,1.39a26.51,26.51,0,0,1-6.82.62A5,5,0,0,1,381.57,82q-5-11.09-9.53-22.36c-1.82-4.48-3.52-9-4.94-13.64-3.88-12.66-2.51-24.29,6.85-34.43a24.94,24.94,0,0,1,17-8.52C406.05,1.94,421.1.75,430.84,0Z"/><path class="cls-1" d="M251.64,517.34c-3,2.64-5.47,4.75-7.86,7-1.66,1.53-2.21,3.24-1,5.47s1.83,4.48,2.85,6.66c.92,2,.68,3.52-1.2,4.69-5.22,3.25-10.47,6.47-15.69,9.74-2.12,1.33-3.76,1-5.29-1a68,68,0,0,0-5.38-6.36,3.31,3.31,0,0,0-2.69-.93c-3.16.79-6.22,1.92-9.36,2.81-1.93.54-2.68,1.59-2.67,3.65a73.34,73.34,0,0,1-.69,7.54,3.18,3.18,0,0,1-3.26,3.1h0c-6.4.07-12.8,0-19.2.06-2,0-2.63-1.35-2.94-3-.44-2.36-1.11-4.69-1.35-7.07s-1.44-3.12-3.44-3.52c-2.84-.57-5.64-1.44-8.5-1.77a4.8,4.8,0,0,0-3.54,1.33,58.91,58.91,0,0,0-4.59,6.07c-1.3,1.81-3,2.53-5,1.44-5.52-3-11-6-16.42-9.14a3.45,3.45,0,0,1-.89-3,60.2,60.2,0,0,1,2.66-8.26,3.06,3.06,0,0,0-1-4,82.37,82.37,0,0,1-6.54-6.27,3.43,3.43,0,0,0-4.51-.83c-2.28,1.09-4.75,1.81-7,2.93s-3.64.41-4.82-1.53c-3-4.83-6-9.65-8.93-14.47-1.37-2.23-1-4.09,1.1-5.69,1.53-1.18,2.83-2.7,4.47-3.68,2.69-1.62,3.14-3.69,2-6.4-.36-.9-.62-1.83-.92-2.75-2.41-7.45-2.41-7.45-10.34-8-4.86-.31-4.93-.3-5.27-5.09s-.63-9.87-.74-14.81c-.1-4.66.6-5.38,5.2-6.24a46.12,46.12,0,0,1,5.72-.84c2.14-.12,2.94-1.37,3.33-3.17s.71-3.81,1.22-5.66c1.37-5,1.41-5-2.86-8.15-.29-.21-.56-.46-.85-.67-6.19-4.52-6.25-4.55-2.66-11.21,2.18-4,4.55-8,6.87-11.94,1.37-2.36,3.27-3,5.83-1.83,2,.89,4.12,1.43,6.08,2.36,2.3,1.09,3.82.32,5.3-1.48a42.46,42.46,0,0,1,4.93-5.28c1.62-1.39,1.69-2.68.81-4.43-1.19-2.37-2.22-4.83-3.34-7.24-.76-1.63-.66-3.09,1-4.11q8.43-5.26,16.92-10.45a3,3,0,0,1,4.16.9c1.68,2.06,3.63,3.92,5.13,6.1a3.36,3.36,0,0,0,4.35,1.39c1-.34,2-.75,3.07-1.08,7.87-2.51,7.87-2.51,8.28-10.46.24-4.66.36-5.22,4.79-5.52,6.11-.41,12.27-.24,18.4-.09a3.44,3.44,0,0,1,2.3,2.14,41.49,41.49,0,0,1,1.5,7.8c.2,2.36,1.17,3.51,3.51,3.75a13.7,13.7,0,0,1,4.6.92c4.79,2.36,7.69.26,9.94-3.8a12.38,12.38,0,0,1,1-1.48c2.85-3.79,3.76-4.15,7.84-2,4.82,2.5,9.48,5.32,14.23,7.95,1.83,1,2.19,2.43,1.54,4.26-.9,2.5-1.69,5.05-2.78,7.47-.86,1.89-.43,3.13,1,4.42,2.19,1.9,4.31,3.88,6.31,6a3.47,3.47,0,0,0,4.51.92c2.4-1.12,4.93-2,7.36-3.06a3.07,3.07,0,0,1,4.23,1l.13.23c3.22,5.24,6.38,10.52,9.57,15.79,1.12,1.85.3,3.23-1.12,4.42-2,1.62-3.9,3.26-5.92,4.79a3.25,3.25,0,0,0-1.26,4.09,45.48,45.48,0,0,1,2.32,8c.4,2.84,2.12,3.48,4.42,3.76s4.79.66,7.2.83c1.74.13,2.69.88,2.77,2.65.17,3.36.38,6.73.49,10.09.09,2.66,0,5.34.13,8s-.51,4.19-3.37,4.5c-2.39.27-4.74.86-7.12,1.25-1.79.29-3.17.83-3.43,3a19.07,19.07,0,0,1-1.38,5.61c-1.88,4.14-.17,6.47,3.23,8.84,6.94,4.86,6.79,3.69,2.78,12.1-1.87,3.91-4.31,7.54-6.43,11.34-1.26,2.26-2.88,3-5.39,1.93C257.1,519.3,254,518.24,251.64,517.34Zm-15.48-51.07c.77-26.47-21.32-49.5-49.15-49.34a49.24,49.24,0,0,0-1,98.46c27.91.83,51.05-22.95,50.15-49.12Z"/><path class="cls-1" d="M435.3,305.17a30.26,30.26,0,0,1-5.11,2c-4.28.82-8.56-2.59-8.19-7a39.1,39.1,0,0,1,2.69-10.42c2.32-6.06,3.88-12.2,3.73-18.71a20.54,20.54,0,0,0-.4-2.69c-.56.09-.94.06-1,.18-4.51,9.68-12.52,16.82-18.44,25.45a49.78,49.78,0,0,0-6.28,13.31c-2,6.49.49,12.19,6,16.15,1.68,1.22,4.44,2.37,2.94,4.92-1.38,2.32-3.94,1.07-5.91.22-14-6.06-25-22.68-20.25-43.25,2.42-10.48,7.64-19.56,14.17-27.93,4.09-5.23,8.52-10.2,12.73-15.35a36.15,36.15,0,0,0,7.9-16.12,20.73,20.73,0,0,0-3.5-16.12c-.8-1.19-.69-3-1-4.52,1.53,0,3.32-.43,4.57.19,23.21,11.4,37.36,29.72,41.39,55.4,3.24,20.69-.86,39.73-14.16,56.26-2.6,3.23-6.16,5.72-9.47,8.31-.81.63-2.39.29-3.61.4-.07-1.35-.69-3-.13-4C437,316.53,436.7,311.06,435.3,305.17Z"/></g></g></g></g></svg>